<svg xmlns="http://www.w3.org/2000/svg" xmlns:xlink="http://www.w3.org/1999/xlink" viewBox="-5 -5 55 55" style="
    background-color: black;
"><defs><style>.cls-1{fill:#fff;}.cls-2{fill:#8c99cd;}.cls-3{fill:url(#linear-gradient);}</style><linearGradient id="linear-gradient" x1="38" y1="188.54" x2="82.52" y2="188.54" gradientTransform="translate(-38 -179)" gradientUnits="userSpaceOnUse"><stop offset="0" stop-color="#3479f3"></stop><stop offset="1" stop-color="#7fe4ff"></stop></linearGradient></defs><g id="Layer_2" data-name="Layer 2"><g id="Layer_1-2" data-name="Layer 1"><circle class="cls-2" cx="28.62" cy="15.9" r="3.18"></circle><circle class="cls-2" cx="41.34" cy="3.18" r="3.18"></circle><circle class="cls-2" cx="28.62" cy="3.18" r="3.18"></circle><circle class="cls-2" cx="15.9" cy="3.18" r="3.18"></circle><circle class="cls-2" cx="3.18" cy="3.18" r="3.18"></circle><circle class="cls-2" cx="3.18" cy="15.9" r="3.18"></circle><circle class="cls-3" cx="28.62" cy="15.9" r="3.18"></circle><circle class="cls-3" cx="41.34" cy="3.18" r="3.18"></circle><circle class="cls-3" cx="28.62" cy="3.18" r="3.18"></circle><circle class="cls-3" cx="15.9" cy="3.18" r="3.18"></circle><circle class="cls-3" cx="3.18" cy="3.18" r="3.18"></circle><circle class="cls-3" cx="3.18" cy="15.9" r="3.18"></circle><path class="cls-1" d="M3.18,25.44A3.18,3.18,0,0,0,0,28.62V41.34a3.18,3.18,0,0,0,6.36,0V28.62A3.18,3.18,0,0,0,3.18,25.44Z"></path><path class="cls-1" d="M28.62,25.44a3.18,3.18,0,0,0-3.18,3.18V41.34a3.18,3.18,0,0,0,6.36,0V28.62A3.18,3.18,0,0,0,28.62,25.44Z"></path><path class="cls-1" d="M15.9,12.72a3.18,3.18,0,0,0-3.18,3.18V41.34a3.18,3.18,0,1,0,6.36,0V15.9A3.18,3.18,0,0,0,15.9,12.72Z"></path><path class="cls-1" d="M41.34,12.72a3.18,3.18,0,0,0-3.18,3.18V41.34a3.18,3.18,0,1,0,6.36,0V15.9A3.18,3.18,0,0,0,41.34,12.72Z"></path></g></g></svg>
